<mxfile host="app.diagrams.net" modified="2021-03-24T06:07:48.119Z" agent="5.0 (Windows NT 10.0; Win64; x64) AppleWebKit/537.36 (KHTML, like Gecko) Chrome/88.0.4324.182 YaBrowser/21.2.4.165 Yowser/2.5 Safari/537.36" etag="HmPrRDZDWQcyobrCB3-q" version="14.4.6" type="github">
  <diagram id="AmMkg5M9YSYuQsAp2ahu" name="Page-1">
    <mxGraphModel dx="1967" dy="1841" grid="1" gridSize="10" guides="1" tooltips="1" connect="1" arrows="1" fold="1" page="1" pageScale="1" pageWidth="827" pageHeight="1169" math="0" shadow="0">
      <root>
        <mxCell id="0" />
        <mxCell id="1" parent="0" />
        <mxCell id="p4dsRJ2isNpYm6C_EEN1-1" value="User&lt;br&gt;" style="shape=umlActor;verticalLabelPosition=bottom;verticalAlign=top;html=1;outlineConnect=0;" vertex="1" parent="1">
          <mxGeometry x="100" y="300" width="30" height="60" as="geometry" />
        </mxCell>
        <mxCell id="p4dsRJ2isNpYm6C_EEN1-2" value="InfoApp" style="ellipse;whiteSpace=wrap;html=1;" vertex="1" parent="1">
          <mxGeometry x="280" y="300" width="120" height="80" as="geometry" />
        </mxCell>
        <mxCell id="p4dsRJ2isNpYm6C_EEN1-3" value="" style="endArrow=none;html=1;entryX=0;entryY=0.5;entryDx=0;entryDy=0;exitX=0.5;exitY=0.5;exitDx=0;exitDy=0;exitPerimeter=0;" edge="1" parent="1" source="p4dsRJ2isNpYm6C_EEN1-1" target="p4dsRJ2isNpYm6C_EEN1-2">
          <mxGeometry width="50" height="50" relative="1" as="geometry">
            <mxPoint x="180" y="390" as="sourcePoint" />
            <mxPoint x="230" y="340" as="targetPoint" />
          </mxGeometry>
        </mxCell>
        <mxCell id="p4dsRJ2isNpYm6C_EEN1-4" value="Use" style="endArrow=open;endSize=12;dashed=1;html=1;exitX=0.5;exitY=0;exitDx=0;exitDy=0;entryX=0.5;entryY=1;entryDx=0;entryDy=0;" edge="1" parent="1" source="p4dsRJ2isNpYm6C_EEN1-2" target="p4dsRJ2isNpYm6C_EEN1-5">
          <mxGeometry width="160" relative="1" as="geometry">
            <mxPoint x="330" y="250" as="sourcePoint" />
            <mxPoint x="240" y="210" as="targetPoint" />
          </mxGeometry>
        </mxCell>
        <mxCell id="p4dsRJ2isNpYm6C_EEN1-5" value="Авторизация&lt;br&gt;" style="ellipse;whiteSpace=wrap;html=1;" vertex="1" parent="1">
          <mxGeometry x="90" y="20" width="120" height="80" as="geometry" />
        </mxCell>
        <mxCell id="p4dsRJ2isNpYm6C_EEN1-6" value="Регистрация" style="ellipse;whiteSpace=wrap;html=1;" vertex="1" parent="1">
          <mxGeometry x="220" y="-10" width="120" height="80" as="geometry" />
        </mxCell>
        <mxCell id="p4dsRJ2isNpYm6C_EEN1-7" value="Use" style="endArrow=open;endSize=12;dashed=1;html=1;exitX=0.5;exitY=0;exitDx=0;exitDy=0;entryX=0.5;entryY=1;entryDx=0;entryDy=0;" edge="1" parent="1" source="p4dsRJ2isNpYm6C_EEN1-2" target="p4dsRJ2isNpYm6C_EEN1-6">
          <mxGeometry width="160" relative="1" as="geometry">
            <mxPoint x="400" y="280" as="sourcePoint" />
            <mxPoint x="560" y="280" as="targetPoint" />
          </mxGeometry>
        </mxCell>
        <mxCell id="p4dsRJ2isNpYm6C_EEN1-19" value="Просмотр соответствующего матча" style="ellipse;whiteSpace=wrap;html=1;" vertex="1" parent="1">
          <mxGeometry x="360" y="-130" width="120" height="80" as="geometry" />
        </mxCell>
        <mxCell id="p4dsRJ2isNpYm6C_EEN1-20" value="Подтверждение по почте" style="ellipse;whiteSpace=wrap;html=1;" vertex="1" parent="1">
          <mxGeometry x="250" y="-200" width="120" height="80" as="geometry" />
        </mxCell>
        <mxCell id="p4dsRJ2isNpYm6C_EEN1-21" value="Extends" style="endArrow=block;endSize=16;endFill=0;html=1;entryX=0.5;entryY=0;entryDx=0;entryDy=0;exitX=0.5;exitY=1;exitDx=0;exitDy=0;" edge="1" parent="1" source="p4dsRJ2isNpYm6C_EEN1-20" target="p4dsRJ2isNpYm6C_EEN1-6">
          <mxGeometry width="160" relative="1" as="geometry">
            <mxPoint x="142" y="-92" as="sourcePoint" />
            <mxPoint x="580" y="-10" as="targetPoint" />
          </mxGeometry>
        </mxCell>
        <mxCell id="p4dsRJ2isNpYm6C_EEN1-22" value="Admin" style="shape=umlActor;verticalLabelPosition=bottom;verticalAlign=top;html=1;" vertex="1" parent="1">
          <mxGeometry x="520" y="330" width="30" height="60" as="geometry" />
        </mxCell>
        <mxCell id="p4dsRJ2isNpYm6C_EEN1-23" value="Просмотр матчей с прогнозом" style="ellipse;whiteSpace=wrap;html=1;" vertex="1" parent="1">
          <mxGeometry x="380" y="80" width="120" height="80" as="geometry" />
        </mxCell>
        <mxCell id="p4dsRJ2isNpYm6C_EEN1-24" value="Use" style="endArrow=open;endSize=12;dashed=1;html=1;exitX=1;exitY=0;exitDx=0;exitDy=0;entryX=0;entryY=0.5;entryDx=0;entryDy=0;" edge="1" parent="1" source="p4dsRJ2isNpYm6C_EEN1-2" target="p4dsRJ2isNpYm6C_EEN1-23">
          <mxGeometry width="160" relative="1" as="geometry">
            <mxPoint x="350" y="310" as="sourcePoint" />
            <mxPoint x="417.57359312880726" y="188.2842712474619" as="targetPoint" />
          </mxGeometry>
        </mxCell>
        <mxCell id="p4dsRJ2isNpYm6C_EEN1-25" value="Use" style="endArrow=open;endSize=12;dashed=1;html=1;exitX=0.5;exitY=0;exitDx=0;exitDy=0;entryX=0.5;entryY=1;entryDx=0;entryDy=0;" edge="1" parent="1" source="p4dsRJ2isNpYm6C_EEN1-23" target="p4dsRJ2isNpYm6C_EEN1-19">
          <mxGeometry width="160" relative="1" as="geometry">
            <mxPoint x="392.42640687119274" y="321.71572875253787" as="sourcePoint" />
            <mxPoint x="540" y="200" as="targetPoint" />
          </mxGeometry>
        </mxCell>
        <mxCell id="p4dsRJ2isNpYm6C_EEN1-26" value="Use" style="endArrow=open;endSize=12;dashed=1;html=1;exitX=1;exitY=0.5;exitDx=0;exitDy=0;" edge="1" parent="1" source="p4dsRJ2isNpYm6C_EEN1-23">
          <mxGeometry width="160" relative="1" as="geometry">
            <mxPoint x="642.4264068711927" y="171.71572875253787" as="sourcePoint" />
            <mxPoint x="720" y="190" as="targetPoint" />
          </mxGeometry>
        </mxCell>
        <mxCell id="p4dsRJ2isNpYm6C_EEN1-27" value="Добавление комментариев" style="ellipse;whiteSpace=wrap;html=1;" vertex="1" parent="1">
          <mxGeometry x="720" y="150" width="120" height="80" as="geometry" />
        </mxCell>
        <mxCell id="p4dsRJ2isNpYm6C_EEN1-28" value="Просмотр информации о командах матча" style="ellipse;whiteSpace=wrap;html=1;" vertex="1" parent="1">
          <mxGeometry x="360" y="-270" width="120" height="80" as="geometry" />
        </mxCell>
        <mxCell id="p4dsRJ2isNpYm6C_EEN1-29" value="Use" style="endArrow=open;endSize=12;dashed=1;html=1;exitX=0.5;exitY=0;exitDx=0;exitDy=0;entryX=0.5;entryY=1;entryDx=0;entryDy=0;" edge="1" parent="1" source="p4dsRJ2isNpYm6C_EEN1-19" target="p4dsRJ2isNpYm6C_EEN1-28">
          <mxGeometry width="160" relative="1" as="geometry">
            <mxPoint x="450" y="90" as="sourcePoint" />
            <mxPoint x="430" y="-40" as="targetPoint" />
          </mxGeometry>
        </mxCell>
        <mxCell id="p4dsRJ2isNpYm6C_EEN1-30" value="Личный кабинет" style="ellipse;whiteSpace=wrap;html=1;" vertex="1" parent="1">
          <mxGeometry y="90" width="120" height="80" as="geometry" />
        </mxCell>
        <mxCell id="p4dsRJ2isNpYm6C_EEN1-31" value="Use" style="endArrow=open;endSize=12;dashed=1;html=1;exitX=0;exitY=0;exitDx=0;exitDy=0;entryX=1;entryY=1;entryDx=0;entryDy=0;" edge="1" parent="1" source="p4dsRJ2isNpYm6C_EEN1-2" target="p4dsRJ2isNpYm6C_EEN1-30">
          <mxGeometry width="160" relative="1" as="geometry">
            <mxPoint x="350" y="310" as="sourcePoint" />
            <mxPoint x="160" y="110" as="targetPoint" />
          </mxGeometry>
        </mxCell>
        <mxCell id="p4dsRJ2isNpYm6C_EEN1-32" value="Use" style="endArrow=open;endSize=12;dashed=1;html=1;exitX=0.5;exitY=0;exitDx=0;exitDy=0;" edge="1" parent="1" source="p4dsRJ2isNpYm6C_EEN1-30">
          <mxGeometry width="160" relative="1" as="geometry">
            <mxPoint x="307.57359312880726" y="321.7157287525383" as="sourcePoint" />
            <mxPoint x="-10" y="10" as="targetPoint" />
          </mxGeometry>
        </mxCell>
        <mxCell id="p4dsRJ2isNpYm6C_EEN1-33" value="Сменить пароль" style="ellipse;whiteSpace=wrap;html=1;" vertex="1" parent="1">
          <mxGeometry x="-90" y="-70" width="120" height="80" as="geometry" />
        </mxCell>
        <mxCell id="p4dsRJ2isNpYm6C_EEN1-34" value="Extends" style="endArrow=block;endSize=16;endFill=0;html=1;entryX=0.5;entryY=0;entryDx=0;entryDy=0;" edge="1" parent="1" target="p4dsRJ2isNpYm6C_EEN1-6">
          <mxGeometry width="160" relative="1" as="geometry">
            <mxPoint x="200" y="-110" as="sourcePoint" />
            <mxPoint x="290" as="targetPoint" />
          </mxGeometry>
        </mxCell>
        <mxCell id="p4dsRJ2isNpYm6C_EEN1-35" value="Восстанновить пароль" style="ellipse;whiteSpace=wrap;html=1;" vertex="1" parent="1">
          <mxGeometry x="120" y="-190" width="120" height="80" as="geometry" />
        </mxCell>
      </root>
    </mxGraphModel>
  </diagram>
</mxfile>
